<svg xmlns="http://www.w3.org/2000/svg" viewBox="0 0 144.09 134.95"><defs><style>.cls-1{fill:#da3531;}</style></defs><title>Flower</title><g id="Layer_2" data-name="Layer 2"><g id="Layer_1-2" data-name="Layer 1"><path class="cls-1" d="M128.51,52.29s11.91-13.56,7.27-15.88c-7.42-3.71-17.93-4.3-28.48-.88a43.77,43.77,0,0,0-15.75,8.89,44,44,0,0,0,3.21-16.79c0-11.29-4-21.24-9.92-27.11C81.26-3,72.27,12.63,72.27,12.63S63.06-2.9,59.4.81c-5.81,5.9-9.61,15.71-9.61,26.82A43.89,43.89,0,0,0,53.23,45a43.26,43.26,0,0,0-16.58-9.69c-10.73-3.49-21.4-2.82-28.83,1.06-4.47,2.33,7.63,15.7,7.63,15.7S-2.16,56,.22,60.64c3.83,7.36,12,14,22.54,17.44a43.39,43.39,0,0,0,18.77,2A43.36,43.36,0,0,0,27.92,92.43c-6.64,9.12-9.3,19.49-7.92,27.75.85,4.95,17.3-2.41,17.3-2.41s-1.67,18,3.46,17.12c8.17-1.35,17-7,23.54-16a43.58,43.58,0,0,0,7.56-16.69,43.37,43.37,0,0,0,7.54,16.65c6.64,9.13,15.66,14.87,24,16.09,5,.74,3-17.17,3-17.17s16.58,7.13,17.37,2c1.23-8.19-1.46-18.36-8-27.36a44.14,44.14,0,0,0-13.07-12.08,43.26,43.26,0,0,0,18.47-2c10.73-3.49,19-10.31,22.69-17.8C146.15,56,128.51,52.29,128.51,52.29Zm-32,14.4a4.27,4.27,0,0,1-1.65.19A4.14,4.14,0,0,1,92,65.48L83.6,68.2l-2.16.72a10.57,10.57,0,0,1,.09,1.28A9.81,9.81,0,0,1,78.81,77l1,1.34,5.56,7.63a4.32,4.32,0,0,1,3.14.56,4.21,4.21,0,0,1,1.22,1.13,4.35,4.35,0,0,1-1,6,4.3,4.3,0,0,1-6-1A4.15,4.15,0,0,1,82,91.2,4.32,4.32,0,0,1,82.41,88l-5.53-7.59-1-1.35a9.71,9.71,0,0,1-8.46,0l-.85,1.15L60.91,88a4.22,4.22,0,0,1,.42,3.17,3.82,3.82,0,0,1-.69,1.51,4.29,4.29,0,0,1-6,1,4.34,4.34,0,0,1-1-6,4.12,4.12,0,0,1,1.23-1.13A4.34,4.34,0,0,1,58,85.93l5.63-7.78L64.51,77A9.8,9.8,0,0,1,61.8,70.2a8.87,8.87,0,0,1,.09-1.28l-1.7-.56-8.83-2.88a4.16,4.16,0,0,1-2.87,1.4,4.29,4.29,0,0,1-1.65-.19,4.34,4.34,0,1,1,2.68-8.25,4.51,4.51,0,0,1,1.46.81,4.39,4.39,0,0,1,1.49,2.81l8.79,2.86L63,65.5a9.78,9.78,0,0,1,6.86-5V49.44a4.25,4.25,0,0,1-2.21-2.3,4.11,4.11,0,0,1-.33-1.64,4.34,4.34,0,0,1,8.68,0,4.11,4.11,0,0,1-.33,1.64,4.25,4.25,0,0,1-2.21,2.3V60.51a9.78,9.78,0,0,1,6.86,5l2.3-.76,8.23-2.68a4.28,4.28,0,0,1,3-3.62,4.34,4.34,0,0,1,2.68,8.25Z"/></g></g></svg>